<?xml version="1.0" encoding="UTF-8"?>
<svg width="84px" height="90px" viewBox="0 0 84 90" version="1.1" xmlns="http://www.w3.org/2000/svg" xmlns:xlink="http://www.w3.org/1999/xlink">
    <title>Tracé_10204</title>
    <g id="Final" stroke="none" stroke-width="1" fill="none" fill-rule="evenodd">
        <g id="Pagina-1-Copy-21" transform="translate(-258.000000, -592.000000)" fill="#2E3032" fill-rule="nonzero">
            <g id="c" transform="translate(258.000000, 592.000000)">
                <path d="M64.34084,56.1086213 C59.2799142,64.9964465 48.8666111,69.3642897 38.9760467,66.7478429 C29.0854824,64.1313961 22.1969754,55.1865376 22.1969754,44.9598967 C22.1969754,34.7332558 29.0854824,25.7883972 38.9760467,23.1719505 C48.8666111,20.5555037 59.2799142,24.9233468 64.34084,33.811172 L84,22.502034 C73.8128726,4.86506788 53.0446237,-3.73368983 33.3646048,1.53726726 C13.684586,6.80822434 0,24.6345857 0,45 C0,65.3654143 13.684586,83.1917757 33.3646048,88.4627327 C53.0446237,93.7336898 73.8128726,85.1349321 84,67.497966 L64.34084,56.1086213" id="Tracé_10204"></path>
            </g>
        </g>
    </g>
</svg>