<?xml version="1.0" encoding="UTF-8"?>
<svg width="100px" height="113px" viewBox="0 0 100 113" version="1.1" xmlns="http://www.w3.org/2000/svg" xmlns:xlink="http://www.w3.org/1999/xlink">
    <title>cplus</title>
    <g id="Final" stroke="none" stroke-width="1" fill="none" fill-rule="evenodd">
        <g id="Pagina-1-Copy-21" transform="translate(-583.000000, -581.000000)" fill-rule="nonzero">
            <g id="cplus" transform="translate(583.000000, 581.000000)">
                <path d="M99.9839376,33.0961601 C100.195141,29.5561759 98.3092918,26.2217751 95.1666504,24.5786378 L55.2320376,1.53943816 C51.9924658,-0.513146053 47.8596144,-0.513146053 44.6200426,1.53943816 C39.3140451,4.6811472 12.7840576,19.8311664 4.89487716,24.4390063 C1.76285971,26.1015366 -0.137496958,29.4135868 0.00777420299,32.9565286 L0.00777420299,79.2443752 C0.00334747986,80.9453031 0.410556476,82.622046 1.19464206,84.1314781 C2.07604707,85.6547507 3.35509378,86.9096644 4.89487716,87.7618975 C12.7840576,92.3697374 39.3140451,107.519757 44.6200426,110.661466 C47.8596144,112.71405 51.9924658,112.71405 55.2320376,110.661466 L95.1666504,87.622266 C96.7064337,86.7700329 97.9854804,85.5151192 98.8668855,83.9918466 C99.6547463,82.4865095 100.039576,80.8028806 99.9839376,79.1047437 L99.9839376,33.0961601" id="Tracé_10199" fill="#6B7076"></path>
                <path d="M49.9260401,55.9957283 L1.05501055,83.9220309 C1.93641556,85.4453034 3.21546227,86.7002172 4.75524565,87.5524502 C12.6444261,92.1602901 39.1744136,107.310309 44.4804111,110.452018 C47.7199829,112.504603 51.8528343,112.504603 55.0924061,110.452018 L95.0270188,87.4128187 C96.5668022,86.5605856 97.8458489,85.3056719 98.7272539,83.7823994 L49.8562244,55.8560967" id="Tracé_10200" fill="#4A4D50"></path>
                <path d="M35.9628888,64.4434348 C38.9045389,69.6144465 44.395761,72.8082084 50.3449347,72.8082084 C56.2941083,72.8082084 61.7853304,69.6144465 64.7269805,64.4434348 L49.9260401,55.9957283 L35.9628888,64.4434348" id="Tracé_10201" fill="#4A4D50"></path>
                <path d="M99.9839376,33.0961601 C100.04966,31.3441323 99.6395103,29.607026 98.7970697,28.0694256 L49.9260401,55.9957283 L98.7970697,83.9220309 C99.5849306,82.4166937 99.96976,80.7330649 99.9141218,79.0349279 L99.9141218,33.0961601" id="Tracé_10202" fill="#2E3032"></path>
                <path d="M97.3309388,58.090201 L93.560888,58.090201 L93.560888,61.9300676 L89.7210213,61.9300676 L89.7210213,58.090201 L85.9509705,58.090201 L85.9509705,54.3201501 L89.7210213,54.3201501 L89.7210213,50.4802835 L93.4910722,50.4802835 L93.4910722,54.3201501 L97.3309388,54.3201501 L97.3309388,58.090201 M83.3677875,58.090201 L79.5977366,58.090201 L79.5977366,61.9300676 L75.75787,61.9300676 L75.75787,58.090201 L71.9878192,58.090201 L71.9878192,54.3201501 L75.75787,54.3201501 L75.75787,50.4802835 L79.5977366,50.4802835 L79.5977366,54.3201501 L83.3677875,54.3201501 L83.3677875,58.090201" id="Tracé_10203" fill="#FFFFFF"></path>
                <path d="M64.4477175,64.373619 C60.7201352,70.9761018 53.0096624,74.2353664 45.6765841,72.3082933 C38.3435057,70.3812202 33.2315596,63.7523286 33.2315596,56.1702676 C33.2315596,48.5882067 38.3435057,41.9593151 45.6765841,40.032242 C53.0096624,38.1051689 60.7201352,41.3644334 64.4477175,47.9669163 L78.8995791,39.6588412 C69.7414108,23.8003243 49.4623602,18.3670586 33.6023078,27.5225676 C17.7422554,36.6780766 12.3055895,56.9562158 21.4584388,72.8178032 C30.6112882,88.6793906 50.8885155,94.1194568 66.7516374,84.9692672 C71.8537601,82.0448877 76.0741345,77.8003969 78.9693948,72.6816941 L64.4477175,64.373619" id="Tracé_10204" fill="#FFFFFF"></path>
            </g>
        </g>
    </g>
</svg>