<?xml version="1.0" encoding="UTF-8"?>
<svg width="100px" height="100px" viewBox="0 0 100 100" version="1.1" xmlns="http://www.w3.org/2000/svg" xmlns:xlink="http://www.w3.org/1999/xlink">
    <title>javascript</title>
    <g id="Final" stroke="none" stroke-width="1" fill="none" fill-rule="evenodd">
        <g id="Pagina-1-Copy-21" transform="translate(-1249.000000, -587.000000)" fill-rule="nonzero">
            <g id="javascript" transform="translate(1249.000000, 587.000000)">
                <rect id="Rectangle_5722" fill="#2E3032" x="6.42211439e-15" y="6.42211439e-15" width="100" height="100"></rect>
                <path d="M67.2451193,78.1634129 C68.9584861,81.7038372 72.5675341,83.9312965 76.5003615,83.8756327 C80.4049168,83.8756327 82.8633406,81.923355 82.8633406,79.2480116 C82.8633406,76.5726681 80.3326103,74.9096168 75.6326826,73.0296457 L73.318872,72.0173536 C66.5220535,69.1250904 62.0390456,65.5097614 62.0390456,57.5560376 C62.042365,54.0266307 63.5365121,50.6628641 66.1530421,48.2942158 C68.7695722,45.9255676 72.2649691,44.7724838 75.7772957,45.1193059 C81.2730895,44.6753104 86.5150583,47.508807 89.154013,52.3499638 L81.923355,57.0498915 C80.9451231,54.5718896 78.5120357,52.9787966 75.8496023,53.0730296 C74.7630499,53.0728564 73.7220168,53.5093753 72.9605373,54.2844527 C72.1990577,55.0595301 71.7810311,56.1081256 71.8004338,57.1945047 L71.8004338,57.5560376 C71.8004338,60.3759942 73.5357918,61.5328995 77.5849602,63.2682574 L79.8987708,64.2805495 C87.9248012,67.6789588 92.4078091,71.5112075 92.4078091,78.7418655 C92.4078091,85.9725235 85.7556038,91.8293565 76.8618944,91.8293565 C69.7700992,92.2931796 63.0645624,88.5584502 59.725235,82.2848879 L67.2451193,78.1634129 Z M33.9840926,78.8864787 C35.5025307,81.5618221 36.8040492,83.7310195 40.0578453,83.7310195 C43.3116414,83.7310195 45.1193059,82.5741142 45.1193059,77.8741866 L45.1193059,45.9869848 L54.5191612,45.9869848 L54.5191612,78.0187997 C55.0819194,81.9217257 53.8035974,85.8650471 51.0580513,88.6955071 C48.3125051,91.5259671 44.4099368,92.9237696 40.4916847,92.4801157 C34.4549387,92.8423084 28.8303247,89.4098516 26.3919017,83.8756327 L33.9840926,78.8864787 Z" id="Tracé_10175" fill="#FFFFFF"></path>
            </g>
        </g>
    </g>
</svg>